<?xml version="1.0" ?><svg viewBox="0 0 512 512" xmlns="http://www.w3.org/2000/svg"><title/><g data-name="1" id="_1"><path d="M72.86,407.49H69.13a15,15,0,0,1-15-15V282.25C54.13,201.62,119.74,136,200.37,136h50.21V70.75a15,15,0,0,1,25-11.14L451.18,217.88a15,15,0,0,1,0,22.28L275.63,398.44a15,15,0,0,1-25-11.15V322H183.65a99.52,99.52,0,0,0-96.28,74.25A15,15,0,0,1,72.86,407.49ZM183.65,292h81.93a15,15,0,0,1,15,15v46.54L418.73,229,280.58,104.47V151a15,15,0,0,1-15,15H200.37A116.37,116.37,0,0,0,84.13,282.25v56.36A129.6,129.6,0,0,1,183.65,292Z"/></g></svg>